<?xml version="1.0" encoding="UTF-8"?>
<svg xmlns="http://www.w3.org/2000/svg" id="Layer_1" viewBox="0 0 144 90">
  <defs>
    <style>.cls-1{fill:white;}</style>
  </defs>
  <path class="cls-1" d="M7.2,25.28v39.44H136.8V25.28H7.2Zm127.22,37.06H9.58V27.66h124.83V62.34Z"></path>
  <g>
    <path class="cls-1" d="M25.61,44.08h.1c.71-.78,3.78-3.91,4.39-4.62,.59-.69,1.05-1.22,1.05-1.57,0-.23-.08-.38-.29-.42-.19-.04-.27-.08-.27-.21,0-.15,.1-.19,.34-.19,.44,0,1.6,.06,2.16,.06,.65,0,1.81-.06,2.46-.06,.21,0,.36,.04,.36,.19s-.1,.19-.31,.19c-.29,0-.82,.08-1.22,.23-.65,.25-1.36,.69-2.27,1.57-.65,.63-3.82,3.78-4.53,4.53,.76,.99,4.87,5.42,5.69,6.19,.92,.88,1.87,1.83,3,2.27,.63,.25,1.05,.32,1.3,.32,.15,0,.27,.04,.27,.17,0,.15-.1,.21-.5,.21h-1.83c-.63,0-1.01,0-1.45-.04-1.13-.11-1.7-.57-2.6-1.36-.92-.82-5.06-5.67-5.5-6.28l-.23-.31h-.1v1.91c0,1.93,0,3.59,.06,4.49,.04,.59,.23,1.05,.76,1.13,.29,.04,.76,.08,1.03,.08,.17,0,.27,.06,.27,.17,0,.15-.17,.21-.4,.21-1.18,0-2.5-.06-3.02-.06-.48,0-1.81,.06-2.65,.06-.27,0-.42-.06-.42-.21,0-.11,.08-.17,.34-.17,.31,0,.57-.04,.76-.08,.42-.08,.52-.55,.61-1.15,.1-.88,.1-2.54,.1-4.47v-3.7c0-3.19,0-3.78-.04-4.45-.04-.71-.21-1.05-.9-1.2-.17-.04-.52-.06-.82-.06-.23,0-.36-.04-.36-.19s.15-.19,.46-.19c1.11,0,2.44,.06,2.94,.06s1.83-.06,2.54-.06c.29,0,.44,.04,.44,.19s-.13,.19-.29,.19c-.21,0-.34,.02-.59,.06-.57,.1-.73,.46-.78,1.2-.04,.67-.04,1.26-.04,4.45v.92Z"></path>
    <path class="cls-1" d="M40.31,43.15c0-3.19,0-3.78-.04-4.45-.04-.71-.25-1.07-.71-1.18-.23-.06-.5-.08-.76-.08-.21,0-.34-.04-.34-.21,0-.13,.17-.17,.5-.17,.8,0,2.12,.06,2.73,.06,.52,0,1.76-.06,2.56-.06,.27,0,.44,.04,.44,.17,0,.17-.13,.21-.34,.21s-.38,.02-.63,.06c-.57,.1-.73,.46-.78,1.2-.04,.67-.04,1.26-.04,4.45v3.7c0,2.04,0,3.69,.08,4.6,.06,.57,.21,.94,.84,1.03,.29,.04,.76,.08,1.07,.08,.23,0,.34,.06,.34,.17,0,.15-.17,.21-.4,.21-1.39,0-2.71-.06-3.28-.06-.48,0-1.81,.06-2.65,.06-.27,0-.42-.06-.42-.21,0-.11,.08-.17,.34-.17,.32,0,.57-.04,.76-.08,.42-.08,.55-.44,.61-1.05,.1-.88,.1-2.54,.1-4.58v-3.7Z"></path>
    <path class="cls-1" d="M50.97,50.08c.04,1.64,.31,2.18,.73,2.33,.36,.13,.76,.15,1.09,.15,.23,0,.36,.04,.36,.17,0,.17-.19,.21-.48,.21-1.36,0-2.2-.06-2.6-.06-.19,0-1.18,.06-2.27,.06-.27,0-.46-.02-.46-.21,0-.13,.13-.17,.34-.17,.27,0,.65-.02,.94-.1,.55-.17,.63-.78,.65-2.6l.19-12.37c0-.42,.06-.71,.27-.71,.23,0,.42,.27,.78,.65,.25,.27,3.44,3.63,6.51,6.68,1.43,1.43,4.26,4.45,4.62,4.79h.1l-.21-9.43c-.02-1.28-.21-1.68-.71-1.89-.31-.13-.82-.13-1.11-.13-.25,0-.34-.06-.34-.19,0-.17,.23-.19,.55-.19,1.09,0,2.1,.06,2.54,.06,.23,0,1.03-.06,2.06-.06,.27,0,.48,.02,.48,.19,0,.13-.13,.19-.38,.19-.21,0-.38,0-.63,.06-.59,.17-.76,.61-.78,1.78l-.23,13.25c0,.46-.08,.65-.27,.65-.23,0-.48-.23-.71-.46-1.32-1.26-4.01-4.01-6.19-6.17-2.29-2.27-4.62-4.83-5-5.23h-.06l.23,8.75Z"></path>
    <path class="cls-1" d="M68.99,43.15c0-3.19,0-3.78-.04-4.45-.04-.71-.21-1.05-.9-1.2-.17-.04-.52-.06-.82-.06-.23,0-.36-.04-.36-.19s.15-.19,.46-.19c1.11,0,2.44,.06,2.88,.06,.71,0,2.31-.06,2.96-.06,1.32,0,2.73,.13,3.86,.9,.59,.4,1.43,1.47,1.43,2.88,0,1.55-.65,2.98-2.77,4.7,1.87,2.35,3.32,4.22,4.56,5.52,1.18,1.22,2.04,1.36,2.35,1.43,.23,.04,.42,.06,.59,.06s.25,.06,.25,.17c0,.17-.15,.21-.4,.21h-1.99c-1.18,0-1.7-.1-2.25-.4-.9-.48-1.7-1.47-2.88-3.09-.84-1.15-1.81-2.58-2.08-2.9-.11-.13-.23-.15-.38-.15l-1.83-.04c-.1,0-.17,.04-.17,.17v.29c0,1.95,0,3.61,.11,4.49,.06,.61,.19,1.07,.82,1.15,.32,.04,.78,.08,1.03,.08,.17,0,.25,.06,.25,.17,0,.15-.15,.21-.42,.21-1.22,0-2.77-.06-3.09-.06-.4,0-1.72,.06-2.56,.06-.27,0-.42-.06-.42-.21,0-.11,.08-.17,.34-.17,.31,0,.57-.04,.76-.08,.42-.08,.52-.55,.61-1.15,.1-.88,.1-2.54,.1-4.47v-3.7Zm2.48,1.66c0,.23,.04,.31,.19,.38,.44,.15,1.07,.21,1.6,.21,.84,0,1.11-.08,1.49-.36,.63-.46,1.24-1.43,1.24-3.15,0-2.98-1.97-3.84-3.21-3.84-.52,0-.9,.02-1.11,.08-.15,.04-.19,.13-.19,.29v6.38Z"></path>
    <path class="cls-1" d="M82.26,45c0-3.59,2.37-8.23,8.67-8.23,5.23,0,8.48,3.04,8.48,7.85s-3.36,8.61-8.69,8.61c-6.03,0-8.46-4.51-8.46-8.23Zm14.21,.4c0-4.7-2.71-7.62-6.15-7.62-2.41,0-5.16,1.34-5.16,6.57,0,4.37,2.41,7.83,6.45,7.83,1.47,0,4.87-.71,4.87-6.78Z"></path>
    <path class="cls-1" d="M102.67,52.68c-.34-.15-.4-.25-.4-.71,0-1.15,.08-2.41,.1-2.75,.02-.32,.08-.55,.25-.55,.19,0,.21,.19,.21,.36,0,.27,.08,.71,.19,1.07,.46,1.55,1.7,2.12,3,2.12,1.89,0,2.81-1.28,2.81-2.39,0-1.03-.31-1.99-2.06-3.36l-.97-.76c-2.31-1.81-3.11-3.28-3.11-4.98,0-2.31,1.93-3.97,4.85-3.97,1.36,0,2.25,.21,2.79,.36,.19,.04,.29,.1,.29,.25,0,.27-.08,.88-.08,2.52,0,.46-.06,.63-.23,.63-.15,0-.21-.13-.21-.38,0-.19-.11-.84-.55-1.39-.32-.4-.92-1.03-2.29-1.03-1.55,0-2.5,.9-2.5,2.16,0,.97,.48,1.7,2.23,3.02l.59,.44c2.54,1.91,3.44,3.36,3.44,5.35,0,1.22-.46,2.67-1.97,3.65-1.05,.67-2.23,.86-3.34,.86-1.22,0-2.16-.15-3.07-.55Z"></path>
    <path class="cls-1" d="M114.7,52.68c-.34-.15-.4-.25-.4-.71,0-1.15,.08-2.41,.1-2.75,.02-.32,.08-.55,.25-.55,.19,0,.21,.19,.21,.36,0,.27,.08,.71,.19,1.07,.46,1.55,1.7,2.12,3,2.12,1.89,0,2.81-1.28,2.81-2.39,0-1.03-.31-1.99-2.06-3.36l-.97-.76c-2.31-1.81-3.11-3.28-3.11-4.98,0-2.31,1.93-3.97,4.85-3.97,1.36,0,2.25,.21,2.79,.36,.19,.04,.29,.1,.29,.25,0,.27-.08,.88-.08,2.52,0,.46-.06,.63-.23,.63-.15,0-.21-.13-.21-.38,0-.19-.1-.84-.55-1.39-.32-.4-.92-1.03-2.29-1.03-1.55,0-2.5,.9-2.5,2.16,0,.97,.48,1.7,2.23,3.02l.59,.44c2.54,1.91,3.44,3.36,3.44,5.35,0,1.22-.46,2.67-1.97,3.65-1.05,.67-2.23,.86-3.34,.86-1.22,0-2.16-.15-3.07-.55Z"></path>
  </g>
</svg>