<?xml version="1.0" encoding="UTF-8"?> <svg xmlns="http://www.w3.org/2000/svg" id="Layer_1" viewBox="0 0 144 90"><defs><style>.cls-1{fill:#f1f2f2;}</style></defs><path class="cls-1" d="M68.21,54.63v-14.69h4.04l.93,2.43c.78-2.21,2.43-2.84,4.42-2.82,1.98,.02,3.7,.54,4.53,2.7,.11-.13,.19-.2,.23-.28,1.41-2.68,5.65-3.33,7.85-1.23,1.12,1.07,1.34,2.45,1.36,3.86,.05,3.1,0,6.2,.03,9.3,0,.57-.18,.75-.74,.74-1.49-.03-2.98-.01-4.58-.01,0-.57,0-1.04,0-1.52,0-2.44,0-4.88,0-7.32,0-1.45-.64-2.05-2.07-1.99-1.17,.05-1.7,.64-1.71,2-.02,2.3,0,4.59,0,6.89,0,.6,0,1.2,0,1.87h-5.32c0-1.83,0-3.63,0-5.43,0-1.21,0-2.41,0-3.62-.01-1.13-.61-1.7-1.79-1.72-1.23-.03-1.86,.45-1.89,1.6-.05,2.76-.06,5.51-.01,8.27,.01,.82-.24,1.02-1.02,.99-1.4-.06-2.8-.02-4.25-.02Z"></path><path class="cls-1" d="M43.51,39.91h5.42l1.86,8.97,.18,.03,2.23-8.82h5.1l2.24,8.81h.18c.62-2.98,1.23-5.95,1.86-8.96h4.42c-1.29,4.92-2.57,9.8-3.86,14.71-1.77,0-3.47,.03-5.16-.03-.23,0-.56-.41-.64-.68-.67-2.46-1.29-4.93-1.93-7.39-.05-.19-.14-.36-.28-.72-.63,2.43-1.23,4.68-1.8,6.94-.48,1.87-.46,1.88-2.42,1.88-1.15,0-2.3,0-3.45-.01-.05,0-.11-.03-.27-.08-1.22-4.82-2.44-9.69-3.69-14.63Z"></path><path class="cls-1" d="M22.26,34.97h4.6v19.66c-1.29,0-2.61,.03-3.92-.03-.25-.01-.53-.38-.72-.64-2.55-3.68-5.09-7.36-7.63-11.04-.1-.14-.2-.28-.39-.54l-4.62,6.67v-14.1c1.66,0,3.32-.03,4.98,.03,.25,0,.53,.38,.71,.64,2.13,3.17,4.23,6.35,6.35,9.52,.15,.23,.32,.44,.63,.86v-11.02Z"></path><path class="cls-1" d="M115.31,54.63c-1.7,0-3.25,.02-4.79-.02-.18,0-.49-.31-.49-.48-.03-4.71-.02-9.41-.02-14.24,1.34,0,2.62-.01,3.9,.02,.14,0,.34,.26,.41,.44,.25,.6,.46,1.22,.68,1.83,.48-.59,.86-1.26,1.42-1.69,1.22-.95,2.7-1.08,4.19-.88,2.59,.35,3.87,1.49,4,4.12,.19,3.6,.05,7.21,.05,10.87h-5.21c0-.37,0-.71,0-1.04,0-2.53,0-5.06,0-7.58,0-1.77-1.31-2.7-2.95-2.03-.43,.17-.81,.7-1.01,1.15-.19,.42-.15,.95-.16,1.44-.01,2.67,0,5.33,0,8.11Z"></path><path class="cls-1" d="M92.79,47.29c.11-.85,.14-1.72,.34-2.55,.75-3.12,3.11-5.07,6.35-5.19,1.33-.05,2.71-.04,4.01,.22,2.82,.57,4.69,2.64,5,5.54,.15,1.46,.11,2.99-.16,4.44-.49,2.64-2.18,4.27-4.79,4.95-1.76,.45-3.53,.48-5.29,.11-3.29-.71-5.23-3.09-5.38-6.56-.01-.32,0-.63,0-.95h-.09Zm10.43,.02l-.09-.02c-.04-.66-.06-1.32-.14-1.97-.04-.33-.16-.67-.3-.98-.37-.9-1.1-1.39-1.99-1.38-.89,.01-1.64,.51-1.94,1.44-.6,1.88-.58,3.79,0,5.66,.3,.97,1.06,1.43,2.02,1.42,.97,0,1.62-.4,1.92-1.41,.27-.89,.34-1.84,.51-2.76Z"></path><path class="cls-1" d="M34.05,48.61c-.22,1.35,1,2.25,2.03,2.49,1.8,.41,3.53-.07,5.27-.4,.25-.05,.49-.1,.87-.18,0,1.2,.01,2.31-.02,3.41,0,.13-.23,.35-.38,.38-2.8,.53-5.62,.89-8.43,.09-2.74-.77-4.59-3.04-4.69-5.91-.05-1.42,.02-2.89,.36-4.25,.61-2.45,2.29-3.97,4.79-4.53,1.56-.35,3.13-.33,4.68,.04,2.7,.64,4.41,2.89,4.59,6.04,.05,.91,0,1.83,0,2.83h-9.09Zm3.86-2.97c.14-1.63-.5-2.65-1.69-2.72-1.45-.09-2.21,.79-2.28,2.72h3.97Z"></path><path class="cls-1" d="M127.89,43.94c-.79,0-1.37,.05-1.93-.02-.21-.03-.56-.31-.57-.49-.05-1.08-.03-2.17-.03-3.35h2.5v-3.23l5.19-1.35v4.55h3.74c0,1.22,.03,2.33-.03,3.44,0,.17-.39,.43-.61,.44-.8,.05-1.61,.04-2.41,.01-.46-.01-.68,.12-.67,.63,.02,1.58-.02,3.16,.02,4.74,.03,1.18,.53,1.64,1.73,1.66,.62,.01,1.25-.05,1.98-.08,0,1.11,.03,2.2-.03,3.28,0,.17-.36,.46-.56,.47-1.65,.03-3.34,.19-4.96-.05-2.19-.33-3.29-1.85-3.33-4.15-.04-1.84-.01-3.67-.02-5.51,0-.3,0-.61,0-.97Z"></path><polygon class="cls-1" points="14.02 44.64 7.2 54.57 20.89 54.57 14.02 44.64"></polygon></svg> 